<?xml version="1.0" standalone="no"?>
<!DOCTYPE svg PUBLIC "-//W3C//DTD SVG 20010904//EN"
 "http://www.w3.org/TR/2001/REC-SVG-20010904/DTD/svg10.dtd">
<svg version="1.0" xmlns="http://www.w3.org/2000/svg"
 width="500.000000pt" height="500.000000pt" viewBox="0 0 500.000000 500.000000"
 preserveAspectRatio="xMidYMid meet">
<metadata>
Created by potrace 1.11, written by Peter Selinger 2001-2013
</metadata>
<g transform="translate(0.000000,500.000000) scale(0.100000,-0.100000)"
fill="#000000" stroke="none">
<path d="M3136 4882 c3 -15 7 -79 9 -142 5 -190 -34 -332 -138 -500 -22 -36
-49 -75 -60 -87 -22 -24 -13 -31 14 -10 101 77 256 226 343 330 84 101 169
232 169 263 0 44 -5 46 -276 148 l-67 25 6 -27z"/>
<path d="M2025 4613 c-24 -32 -50 -66 -58 -76 -12 -18 -53 -19 -990 -19 l-977
0 0 -39 c0 -48 17 -87 43 -95 10 -3 172 -6 359 -6 337 -1 340 -1 366 -23 l26
-22 0 -343 0 -342 -26 -23 c-24 -21 -34 -22 -139 -20 l-113 3 -121 61 c-66 34
-128 61 -138 61 -10 0 -21 -10 -25 -22 -6 -18 -9 -3444 -3 -3493 1 -7 40 -11
108 -10 167 2 147 -220 148 1636 l0 1581 24 19 c25 21 29 21 148 21 94 0 119
-11 131 -53 11 -43 1 -554 -12 -624 -2 -11 -7 -56 -11 -99 -4 -43 -8 -88 -11
-100 -31 -170 -76 -280 -133 -327 l-36 -29 27 0 c91 0 201 45 265 109 68 69
127 219 148 376 4 28 9 61 11 75 5 31 14 275 18 479 3 147 4 155 26 173 23 19
31 20 122 19 67 0 96 -13 103 -44 3 -12 6 -161 7 -332 4 -418 -15 -395 322
-395 209 0 216 -1 236 -22 11 -12 20 -29 21 -37 1 -21 1 -1158 0 -1191 l-1
-25 -472 0 c-260 1 -478 -1 -484 -3 -7 -2 -11 -32 -9 -88 4 -134 -36 -124 484
-124 473 -1 464 0 479 -56 15 -54 6 -365 -12 -426 -33 -116 -128 -212 -245
-248 -59 -19 -92 -20 -511 -20 -541 0 -495 13 -495 -142 l0 -103 510 1 c498 0
512 1 583 22 212 66 359 218 416 432 15 56 17 331 17 2212 0 289 3 535 5 545
8 28 36 42 93 44 59 3 74 10 65 30 -8 20 -279 242 -311 255 -40 17 -60 7 -108
-56 -55 -72 -93 -88 -195 -85 -41 1 -82 5 -91 9 -35 15 -39 52 -39 325 0 331
10 311 -153 311 l-107 0 0 -299 c0 -362 6 -344 -116 -347 -94 -1 -120 8 -133
50 -11 36 -8 663 3 688 4 9 19 21 34 27 18 7 244 10 673 9 356 0 652 2 658 6
21 13 11 26 -81 102 -51 42 -95 80 -98 83 -3 4 -32 28 -66 54 -82 64 -102 63
-159 -10z m-211 -1169 c17 -8 42 -31 55 -51 23 -35 24 -44 24 -215 0 -231 7
-223 -163 -223 -101 0 -122 3 -137 18 -16 16 -18 42 -21 225 -3 198 -2 209 18
234 15 20 31 28 63 30 68 5 128 -2 161 -18z"/>
<path d="M3883 4438 c19 -18 95 -89 168 -158 72 -69 147 -138 165 -155 17 -16
34 -39 36 -50 3 -20 -3 -20 -919 -23 -728 -2 -923 -5 -924 -15 -5 -55 -3 -126
5 -144 5 -12 20 -26 35 -32 16 -6 189 -10 472 -10 481 1 476 2 526 -53 11 -12
25 -39 30 -58 5 -19 9 -237 8 -484 -1 -499 -1 -499 66 -547 l34 -24 522 0
c511 0 522 0 549 21 15 11 37 33 48 48 20 26 21 41 22 364 1 311 0 332 -12
267 -51 -258 -120 -404 -211 -441 -25 -11 -108 -14 -363 -14 l-331 0 -25 25
-25 25 3 389 c3 378 4 390 24 418 49 65 37 63 523 64 l441 1 0 75 c0 92 -20
131 -83 161 -23 11 -103 49 -177 85 -74 35 -164 78 -200 95 -36 16 -148 69
-249 116 -102 47 -186 86 -189 86 -2 0 11 -15 31 -32z"/>
<path d="M2889 3766 c0 0 -3 -23 -5 -51 -4 -47 -27 -203 -40 -270 -24 -133
-97 -339 -175 -500 -57 -117 -68 -137 -119 -220 -31 -51 -138 -201 -170 -239
-28 -33 -35 -41 -70 -81 -23 -26 -20 -25 30 10 235 165 440 382 587 618 125
202 261 527 248 594 -3 19 -15 38 -28 45 -20 11 -256 97 -258 94z"/>
<path d="M3023 2668 c-1 -30 -28 -171 -48 -249 -103 -397 -298 -779 -569
-1119 -33 -41 -63 -77 -66 -80 -3 -3 -16 -18 -30 -34 -23 -28 -21 -27 30 9
155 109 348 297 475 461 38 49 72 91 75 94 13 11 141 210 190 295 98 170 220
442 220 490 0 40 -29 62 -127 98 -128 47 -150 52 -150 35z"/>
<path d="M4141 2319 c-13 -5 -52 -32 -86 -59 l-62 -50 -324 -2 -324 -3 3 -35
c5 -52 11 -69 33 -80 11 -6 102 -11 221 -11 112 0 217 -4 233 -10 34 -10 65
-54 65 -92 0 -58 -110 -297 -214 -465 -114 -184 -122 -186 -241 -51 -47 53
-138 177 -180 247 -21 34 -39 62 -40 62 -1 0 9 -39 22 -87 33 -117 80 -236
140 -358 67 -135 65 -145 -65 -278 -130 -135 -198 -196 -397 -355 -5 -4 -26
-19 -45 -32 -19 -14 -37 -27 -40 -30 -3 -3 -50 -35 -105 -72 -212 -139 -465
-271 -695 -363 -133 -52 -107 -51 115 6 525 133 970 351 1338 656 108 89 129
92 184 31 157 -173 262 -277 378 -373 182 -151 382 -265 464 -265 39 0 43 3
57 37 37 87 142 177 312 266 l103 54 -56 2 c-167 5 -440 94 -685 223 -122 64
-383 232 -413 266 -39 43 -35 55 67 191 132 176 245 382 312 569 64 181 65
182 94 197 16 8 51 15 79 15 96 0 104 19 34 76 -27 21 -50 41 -53 44 -16 17
-152 130 -158 131 -4 0 -16 2 -27 4 -11 2 -31 -1 -44 -6z"/>
</g>
</svg>
